<svg xmlns="http://www.w3.org/2000/svg" width="160" height="36.63" viewBox="0 0 160 36.63">
  <defs>
    <style>
      .cls-1 {
        fill: #ea5504;
      }

      .cls-2 {
        fill: #004ea2;
      }

      .cls-3 {
        fill: #fff;
      }
    </style>
  </defs>
  <g id="レイヤー_2" data-name="レイヤー 2">
    <g id="design">
      <g>
        <path class="cls-1" d="M36.63,18.32A18.32,18.32,0,1,1,18.32,0,18.31,18.31,0,0,1,36.63,18.32"/>
        <path class="cls-2" d="M18.32,32.6A14.29,14.29,0,1,1,32.51,18.32,14.3,14.3,0,0,1,18.32,32.6"/>
        <path class="cls-3" d="M26,12.27a.43.43,0,0,0,.46-.46V8.61A.43.43,0,0,0,26,8.15H11.45a.43.43,0,0,0-.46.46V28a.43.43,0,0,0,.46.45H15a.43.43,0,0,0,.46-.45V20.88a.44.44,0,0,1,.46-.46h8.7a.43.43,0,0,0,.45-.45V16.85a.43.43,0,0,0-.45-.46h-8.7a.43.43,0,0,1-.46-.45V12.82a.44.44,0,0,1,.46-.46H26Z"/>
        <path class="cls-3" d="M25.19,29.31a2,2,0,1,1,2-2,2,2,0,0,1-2,2m0-3.67a1.65,1.65,0,1,0,1.64,1.65,1.65,1.65,0,0,0-1.64-1.65"/>
        <path class="cls-3" d="M24.36,28.12l.28-.28a1,1,0,0,0,.73.28c.27,0,.37-.09.37-.28h0c0-.18-.1-.27-.55-.36s-.74-.28-.74-.65h0a.72.72,0,0,1,.74-.64,1.29,1.29,0,0,1,.82.28l-.18.27a.85.85,0,0,0-.64-.27c-.28,0-.37.09-.37.27h0c0,.19.09.28.55.37s.73.27.73.64h0c0,.46-.36.64-.82.64a1.13,1.13,0,0,1-.92-.27"/>
        <path class="cls-3" d="M42.13,26.47V17.4H40.66V14.75h1.47V14.1a4.29,4.29,0,0,1,1-3,3.72,3.72,0,0,1,2.74-1h.19a8.88,8.88,0,0,1,2,.28l.19.09v2.75l-.37-.09a3.57,3.57,0,0,0-1.37-.28c-.92,0-1.38.46-1.38,1.47v.36h3.12v2.66h-3v9.07H42.13Z"/>
        <path class="cls-3" d="M67.68,26.65c-2.29,0-3.48-1.28-3.48-3.57V17.4H62.74V14.75H64.2V11.63h3v3.12h3V17.4h-3v5.31c0,.83.37,1.19,1.19,1.19a2.74,2.74,0,0,0,1.47-.36l.37-.19V26.1l-.1.09a4.9,4.9,0,0,1-2.29.55h-.18Z"/>
        <path class="cls-3" d="M86.55,26.47V14.75h3V16.3a4.48,4.48,0,0,1,3.57-1.83h.46v3h-.27c-2.39,0-3.76,1.56-3.76,4.31v4.67Z"/>
        <path class="cls-3" d="M54.4,26.74a4.08,4.08,0,0,1-4.12-2.56A8.38,8.38,0,0,1,49.91,21V14.75h3v6.68a2.79,2.79,0,0,0,.55,1.92,2.05,2.05,0,0,0,1.64.65,2.64,2.64,0,0,0,1.74-.65,2.79,2.79,0,0,0,.65-1.92V14.84h3V26.65h-3v-.91a5.3,5.3,0,0,1-3.12,1"/>
        <path class="cls-3" d="M77.3,26.74a4.08,4.08,0,0,1-4.12-2.56A8.18,8.18,0,0,1,72.81,21V14.75h3v6.68a2.84,2.84,0,0,0,.55,1.92A2.09,2.09,0,0,0,78,24a2.68,2.68,0,0,0,1.74-.65,2.79,2.79,0,0,0,.64-1.92V14.84h3V26.65h-3v-.91a5.25,5.25,0,0,1-3.11,1"/>
        <path class="cls-3" d="M100.38,26.74a5.89,5.89,0,0,1-6-6.13,5.79,5.79,0,0,1,5.77-6.14c3.94,0,5.68,3.21,5.68,6.32v.82l-.27.1H97.45a3,3,0,0,0,3,2.47,3.92,3.92,0,0,0,2.93-1.28l.18-.19,1.84,1.65-.19.18a6.2,6.2,0,0,1-4.85,2.2m2.29-7.32A2.65,2.65,0,0,0,100.1,17a2.8,2.8,0,0,0-2.65,2.39Z"/>
        <path class="cls-3" d="M112.65,26.65a8.39,8.39,0,0,1-5.13-1.83l-.18-.18,1.46-2.2.19.18A6.06,6.06,0,0,0,112.65,24c.46,0,1.56-.1,1.56-1,0-.64-.92-.92-2-1.28l-.46-.1c-1.92-.55-3.84-1.37-3.84-3.66s1.74-3.75,4.39-3.75a8.59,8.59,0,0,1,4.4,1.37l.18.09L115.58,18l-.18-.09a6.54,6.54,0,0,0-3.12-1c-.45,0-1.37.09-1.37.92,0,.64,1,1,2.29,1.37l.27.09c1.84.55,3.76,1.47,3.76,3.67-.09,2.38-1.74,3.75-4.58,3.75"/>
        <path class="cls-3" d="M127.21,26.29V19.6c0-1.65-.82-2.57-2.2-2.57s-2.29,1-2.29,2.57v6.69h-3V10.17h3v5.22a4.34,4.34,0,0,1,3.12-1.1,4.21,4.21,0,0,1,4.49,4.58v7.42Z"/>
        <path class="cls-3" d="M138.94,26.56a6.08,6.08,0,0,1-6.23-6,6.17,6.17,0,0,1,6.23-6.23,6.14,6.14,0,1,1,0,12.27m0-9.53a3.23,3.23,0,0,0-3.21,3.39,3.37,3.37,0,0,0,3.21,3.48,3.22,3.22,0,0,0,3.2-3.38,3.26,3.26,0,0,0-3.2-3.49"/>
        <path class="cls-3" d="M147.82,29.77V14.56h3v1a4.76,4.76,0,0,1,3.3-1.19A5.8,5.8,0,0,1,160,20.52a5.79,5.79,0,0,1-5.86,6.13,5.09,5.09,0,0,1-3.3-1.1v4.31h-3Zm6-12.74a3.22,3.22,0,0,0-3.11,3.39,3.18,3.18,0,0,0,3.11,3.48,3.14,3.14,0,0,0,3-3.38c0-2-1.29-3.49-3-3.49"/>
      </g>
    </g>
  </g>
</svg>
